#!OML:ASF H:\Dans Jumps\Project 1\Capture day 1\Session 1\subject.ASF
:FULLY-SPECIFIED
:DEGREES
368
root 0.256127 18.7788 -3.94104 -0.622644 0.131873 -1.17874
lowerback 1.09348 -1.42566 -1.33294
upperback 2.85327 -1.93514 1.92466
thorax 2.42768 -1.02271 2.70334
lowerneck -10.1364 1.16087 -1.34411
upperneck 36.1449 2.13179 -0.299619
head 13.9829 0.688827 0.42382
rclavicle -3.57812e-015 -5.1684e-015
rhumerus -32.0276 -14.6188 -79.3764
rradius 21.1896
rwrist 35.5969
rhand -21.3508 -25.3925
rfingers 7.12502
rthumb 5.03559 -55.3127
lclavicle -3.57812e-015 -5.1684e-015
lhumerus -15.6084 -0.287218 87.523
lradius 14.9514
lwrist 9.0721
lhand -24.0155 -8.47534
lfingers 7.12502
lthumb 2.46237 21.4902
rfemur -21.0717 -5.84338 18.5383
rtibia 30.5672
rfoot 14.7463 0.552967
rtoes 13.4022
lfemur -18.8608 9.33472 -16.6482
ltibia 25.1963
lfoot 18.2006 -5.01538
ltoes -1.79325
369
root 0.252898 18.4149 -3.79001 -1.27708 0.0880829 -1.21581
lowerback 1.00166 -1.41464 -1.30128
upperback 2.68507 -1.91924 1.95687
thorax 2.30494 -1.0116 2.7188
lowerneck -10.2577 1.15639 -1.39212
upperneck 36.1783 2.12658 -0.253656
head 14.0242 0.6857 0.451688
rclavicle -2.6165e-014 1.31198e-014
rhumerus -32.1827 -14.2594 -79.2769
rradius 21.3733
rwrist 35.5143
rhand -21.4374 -25.4478
rfingers 7.12502
rthumb 4.95198 -55.3699
lclavicle -2.6165e-014 1.31198e-014
lhumerus -15.5435 -0.0655519 87.3655
lradius 14.8855
lwrist 8.45892
lhand -24.0556 -8.62907
lfingers 7.12502
lthumb 2.4237 21.3369
rfemur -20.4306 -5.75677 18.5729
rtibia 32.2932
rfoot 10.5772 2.52499
rtoes 12.4609
lfemur -18.268 9.1751 -16.479
ltibia 27.2586
lfoot 12.6652 -6.65995
ltoes -2.88829
370
root 0.247967 18.0534 -3.6494 -1.92072 0.064313 -1.26181
lowerback 1.00697 -1.40236 -1.28301
upperback 2.51483 -1.90172 1.98626
thorax 2.12592 -0.999364 2.74148
lowerneck -10.4314 1.14998 -1.43093
upperneck 36.178 2.10767 -0.181528
head 14.0615 0.681572 0.48687
rclavicle -4.02539e-015 5.56597e-015
rhumerus -32.2592 -14.0483 -79.1595
rradius 21.5147
rwrist 35.5529
rhand -21.5631 -25.5214
rfingers 7.12502
rthumb 4.83068 -55.4463
lclavicle -4.02539e-015 5.56597e-015
lhumerus -15.3605 0.273752 87.1728
lradius 14.7839
lwrist 7.82444
lhand -24.2039 -8.84496
lfingers 7.12502
lthumb 2.28041 21.1226
rfemur -19.8801 -5.62433 18.6262
rtibia 34.2909
rfoot 5.02215 4.10151
rtoes 10.8865
lfemur -17.8506 9.00397 -16.2844
ltibia 29.7174
lfoot 5.81567 -7.45663
ltoes -4.35121
371
root 0.240652 17.702 -3.52051 -2.56651 0.0604987 -1.31923
lowerback 1.14067 -1.39057 -1.26971
upperback 2.35609 -1.88504 2.00843
thorax 1.88675 -0.987078 2.76272
lowerneck -10.6822 1.14195 -1.47264
upperneck 36.1919 2.07677 -0.0744612
head 14.1223 0.675962 0.535872
rclavicle -2.36057e-014 1.39149e-014
rhumerus -32.2214 -14.0367 -79.0288
rradius 21.5913
rwrist 35.7584
rhand -21.7424 -25.6968
rfingers 7.12502
rthumb 4.65747 -55.6256
lclavicle -2.36057e-014 1.39149e-014
lhumerus -15.0504 0.73868 86.9491
lradius 14.6489
lwrist 7.24519
lhand -24.5053 -9.11994
lfingers 7.12502
lthumb 1.98937 20.8505
rfemur -19.4444 -5.47699 18.7101
rtibia 36.5378
rfoot -1.35026 4.71282
rtoes 8.7996
lfemur -17.606 8.86213 -16.0661
ltibia 32.473
lfoot -1.3887 -7.06146
ltoes -5.82761
372
root 0.230749 17.3755 -3.40497 -3.1804 0.0703242 -1.3752
lowerback 1.39649 -1.37717 -1.27434
upperback 2.20387 -1.86638 2.0224
thorax 1.58619 -0.973433 2.78871
lowerneck -10.9982 1.1355 -1.51384
upperneck 36.2327 2.0421 0.0549929
head 14.2101 0.671215 0.594299
rclavicle 1.97667e-014 -2.78299e-015
rhumerus -32.0409 -14.29 -78.8603
rradius 21.5744
rwrist 36.1995
rhand -21.9727 -25.9846
rfingers 7.12502
rthumb 4.43514 -55.9182
lclavicle 1.97667e-014 -2.78299e-015
lhumerus -14.6099 1.41108 86.6956
lradius 14.4847
lwrist 6.72286
lhand -24.9205 -9.40266
lfingers 7.12502
lthumb 1.58836 20.5712
rfemur -19.1943 -5.36473 18.8144
rtibia 38.9939
rfoot -7.66189 4.13833
rtoes 6.78907
lfemur -17.6104 8.86299 -15.8569
ltibia 35.4367
lfoot -7.91522 -5.69827
ltoes -6.70407
373
root 0.217703 17.0856 -3.30457 -3.61259 0.0960591 -1.37031
lowerback 1.63798 -1.36567 -1.36632
upperback 2.031 -1.85042 2.0181
thorax 1.2751 -0.961775 2.8449
lowerneck -11.3949 1.12588 -1.53903
upperneck 36.322 1.99848 0.190496
head 14.3395 0.664696 0.652472
rclavicle 6.80837e-015 -5.96354e-015
rhumerus -31.6939 -14.8095 -78.6576
rradius 21.4628
rwrist 36.9065
rhand -22.2275 -26.3991
rfingers 7.12502
rthumb 4.18905 -56.3377
lclavicle 6.80837e-015 -5.96354e-015
lhumerus -14.0476 2.31291 86.4242
lradius 14.3107
lwrist 6.25451
lhand -25.4771 -9.70905
lfingers 7.12502
lthumb 1.05081 20.2681
rfemur -19.3913 -5.28346 18.8862
rtibia 41.6593
rfoot -13.0181 2.78762
rtoes 5.35694
lfemur -18.0972 8.9128 -15.7484
ltibia 38.5656
lfoot -12.9609 -3.87478
ltoes -7.20771
374
root 0.202089 16.8352 -3.21819 -3.85354 0.109177 -1.32329
lowerback 1.82344 -1.35091 -1.52855
upperback 1.85356 -1.83124 2.006
thorax 0.992715 -0.94911 2.93117
lowerneck -11.8574 1.1128 -1.52361
upperneck 36.4622 1.95277 0.290471
head 14.51 0.657226 0.690006
rclavicle -3.55079e-014 -8.74653e-015
rhumerus -31.1745 -15.6154 -78.4112
rradius 21.2494
rwrist 37.9301
rhand -22.4851 -26.9184
rfingers 7.12502
rthumb 3.94034 -56.8617
lclavicle -3.55079e-014 -8.74653e-015
lhumerus -13.4007 3.44813 86.1565
lradius 14.1544
lwrist 5.80884
lhand -26.2001 -10.0271
lfingers 7.12502
lthumb 0.352482 19.9523
rfemur -20.1137 -5.22458 18.949
rtibia 44.5331
rfoot -17.0137 1.15671
rtoes 4.6721
lfemur -19.0849 9.0206 -15.7334
ltibia 41.8512
lfoot -16.5499 -2.07019
ltoes -7.57002
375
root 0.185545 16.6164 -3.14405 -3.91267 0.0954557 -1.25013
lowerback 1.91354 -1.33827 -1.74782
upperback 1.68428 -1.81611 2.00179
thorax 0.774519 -0.93934 3.05505
lowerneck -12.3445 1.10152 -1.46023
upperneck 36.6251 1.91883 0.326605
head 14.6999 0.652408 0.695165
rclavicle -1.21259e-014 2.34566e-014
rhumerus -30.5037 -16.6793 -78.1192
rradius 20.953
rwrist 39.2641
rhand -22.7062 -27.4677
rfingers 7.12502
rthumb 3.7268 -57.4148
lclavicle -1.21259e-014 2.34566e-014
lhumerus -12.7393 4.78161 85.9233
lradius 14.0473
lwrist 5.38202
lhand -27.0935 -10.4937
lfingers 7.12502
lthumb -0.510399 19.4854
rfemur -21.3269 -5.20099 19.0128
rtibia 47.6074
rfoot -19.9446 -0.300963
rtoes 4.73202
lfemur -20.503 9.12525 -15.7826
ltibia 45.2793
lfoot -19.0964 -0.485762
ltoes -7.74525
